<?xml version="1.0" encoding="UTF-8" standalone="no"?>
<svg
   width="803"
   height="803"
   viewBox="0 0 803 803"
   version="1.1"
   id="svg4"
   sodipodi:docname="miktex.svg"
   inkscape:version="1.4.2 (f4327f4, 2025-05-13)"
   xmlns:inkscape="http://www.inkscape.org/namespaces/inkscape"
   xmlns:sodipodi="http://sodipodi.sourceforge.net/DTD/sodipodi-0.dtd"
   xmlns="http://www.w3.org/2000/svg"
   xmlns:svg="http://www.w3.org/2000/svg">
  <defs
     id="defs4" />
  <sodipodi:namedview
     id="namedview4"
     pagecolor="#ffffff"
     bordercolor="#666666"
     borderopacity="1.0"
     inkscape:showpageshadow="2"
     inkscape:pageopacity="0.0"
     inkscape:pagecheckerboard="0"
     inkscape:deskcolor="#d1d1d1"
     showgrid="false"
     inkscape:zoom="0.99875467"
     inkscape:cx="401.5"
     inkscape:cy="400.99938"
     inkscape:window-width="1920"
     inkscape:window-height="1027"
     inkscape:window-x="408"
     inkscape:window-y="1942"
     inkscape:window-maximized="1"
     inkscape:current-layer="svg4" />
  <g
     id="g4">
    <path
       d="M 786.27 388.00 L 786.50 399.50 L 401.72 399.75 C42.44,399.99 16.90,399.89 16.29,398.33 C15.25,395.60 17.89,361.55 20.44,344.90 C33.07,262.44 69.67,189.63 128.00,130.94 C166.82,91.89 206.83,65.12 257.47,44.35 C296.23,28.44 336.18,19.68 382.50,16.91 C445.64,13.15 513.13,26.98 571.71,55.68 C640.26,89.28 701.05,147.45 738.88,215.65 C767.03,266.41 785.13,332.21 786.27,388.00 ZM 219.00 179.94 L 219.00 335.07 L 229.25 334.78 L 239.50 334.50 L 239.41 286.46 C239.36,260.04 239.01,233.56 238.62,227.62 C238.08,219.28 238.20,216.90 239.15,217.22 C240.24,217.58 248.53,236.56 257.18,258.50 C258.91,262.90 263.56,274.38 267.50,284.00 C271.45,293.62 277.76,309.10 281.53,318.38 L 288.38 335.26 L 295.84 334.70 C300.01,334.38 303.85,333.55 304.54,332.82 C305.23,332.09 312.79,313.95 321.34,292.50 C339.45,247.10 351.79,216.88 352.50,216.17 C352.77,215.89 353.17,215.85 353.37,216.08 C353.57,216.31 353.27,242.41 352.69,274.07 C352.12,305.74 351.95,332.41 352.31,333.36 C352.88,334.84 354.27,335.03 362.73,334.79 L 372.50 334.50 L 373.01 180.00 L 346.89 180.00 L 344.33 185.75 C341.34,192.46 334.60,209.03 313.31,262.00 C304.80,283.17 297.60,301.06 297.31,301.75 C297.02,302.44 296.43,303.00 296.00,303.00 C295.57,303.00 290.23,290.51 284.13,275.25 C278.03,259.99 266.98,232.43 259.57,214.00 L 246.10 180.50 L 232.55 180.22 ZM 461.70 334.37 C462.09,334.75 466.70,334.94 471.95,334.78 L 481.50 334.50 L 482.00 308.41 L 482.50 282.33 L 500.22 263.50 L 503.15 267.00 C504.76,268.93 517.20,285.01 530.78,302.75 L 555.48 335.00 L 567.24 335.00 C578.84,335.00 580.35,334.54 577.99,331.71 C577.44,331.04 572.90,325.10 567.91,318.50 C562.93,311.90 550.22,295.11 539.67,281.18 C529.13,267.25 519.25,254.10 517.71,251.96 L 514.93 248.06 L 531.57 229.28 C540.72,218.95 551.43,206.90 555.37,202.50 C567.34,189.13 574.00,181.31 574.00,180.64 C574.00,180.29 568.62,180.00 562.05,180.00 L 550.09 180.00 L 527.80 204.71 C515.53,218.30 500.62,234.83 494.66,241.46 C488.70,248.08 483.41,253.65 482.91,253.83 C482.37,254.03 482.00,238.97 482.00,217.08 L 482.00 180.00 L 461.00 180.00 L 461.00 256.83 C461.00,299.09 461.32,333.98 461.70,334.37 ZM 407.67 334.33 C408.03,334.70 412.53,335.00 417.67,335.00 L 427.00 335.00 L 427.00 220.00 L 407.00 220.00 L 407.00 276.83 C407.00,308.09 407.30,333.97 407.67,334.33 ZM 411.31 199.05 C415.20,201.42 416.80,201.47 422.02,199.38 C426.68,197.51 429.00,193.87 429.00,188.45 C429.00,183.08 423.72,178.00 418.15,178.00 C410.26,178.00 406.00,182.03 406.00,189.52 C406.00,194.19 407.37,196.65 411.31,199.05 Z"
       fill="rgb(1,86,182)"
       id="path1" />
    <path
       d="M 506.23 629.75 L 502.58 636.00 L 474.29 636.00 C458.73,636.00 446.00,635.66 446.00,635.25 C446.00,634.84 448.25,630.76 451.00,626.19 C453.75,621.62 456.00,617.73 456.00,617.54 C456.00,617.23 462.85,605.44 465.03,602.00 C465.55,601.17 466.84,598.92 467.90,597.00 C468.95,595.08 475.08,584.50 481.52,573.50 C504.22,534.72 508.00,528.05 508.00,526.74 C508.00,525.21 495.37,502.36 480.53,477.04 C464.85,450.30 448.00,420.74 448.00,419.98 C448.00,419.02 467.72,418.01 486.68,418.00 C499.97,418.00 503.13,418.28 504.41,419.55 C505.85,421.00 514.41,438.11 532.00,474.75 C536.03,483.14 539.62,490.00 539.98,490.00 C540.35,490.00 548.44,474.07 557.98,454.60 L 575.31 419.21 L 589.16 418.49 C608.24,417.50 633.31,418.74 632.59,420.63 C632.02,422.12 623.93,436.34 592.68,490.79 C581.86,509.65 573.00,525.74 573.00,526.55 C573.00,528.07 577.12,535.14 589.19,554.35 C592.93,560.32 596.00,565.32 596.00,565.46 C596.00,565.60 601.90,575.35 609.12,587.11 C628.38,618.53 637.01,632.86 637.65,634.52 C638.14,635.81 634.21,636.00 607.82,636.00 L 577.42 636.00 L 559.46 599.91 C549.58,580.07 541.17,563.62 540.77,563.37 C540.37,563.12 533.26,576.54 524.96,593.21 C516.66,609.87 508.23,626.31 506.23,629.75 ZM 448.00 679.00 L 448.00 718.00 L 305.99 718.00 L 306.25 609.25 L 306.50 500.50 L 447.50 500.50 L 448.04 538.68 L 415.77 539.34 C398.02,539.70 377.59,540.00 370.36,540.00 C359.30,540.00 357.12,540.25 356.61,541.58 C355.71,543.92 355.90,583.29 356.82,584.74 C357.41,585.68 366.62,586.04 395.05,586.24 L 432.50 586.50 L 433.04 623.72 L 427.77 624.35 C424.87,624.70 407.82,624.99 389.88,624.99 L 357.25 625.00 L 356.62 628.12 C355.82,632.14 355.81,675.33 356.61,677.42 C357.15,678.83 362.14,679.00 402.61,679.00 ZM 271.00 458.00 L 271.00 636.00 L 220.00 636.00 L 220.00 458.03 L 192.25 457.77 L 164.50 457.50 L 164.23 438.38 L 163.96 419.26 L 167.10 418.63 C171.27,417.80 276.48,417.82 305.34,418.66 L 328.00 419.32 L 328.00 456.70 L 319.75 457.35 C315.21,457.70 302.39,457.99 291.25,457.99 Z"
       fill="rgb(96,99,100)"
       id="path2" />
    <path
       d="M 446.50 784.60 C436.10,786.01 384.96,787.32 375.50,786.42 C327.59,781.86 297.91,774.93 256.00,758.50 C222.46,745.36 184.07,722.23 152.50,696.13 C141.66,687.17 117.38,662.86 106.91,650.47 C68.96,605.58 41.21,551.36 27.09,494.50 C24.90,485.70 22.61,475.58 22.00,472.00 C17.68,446.92 15.75,421.88 16.12,397.17 C16.16,397.73 16.21,398.12 16.29,398.33 C16.90,399.89 42.44,399.99 401.72,399.75 L 786.40 399.50 C786.41,400.99 786.42,402.49 786.42,404.00 C786.36,435.53 785.08,448.27 778.81,479.50 C775.53,495.87 775.05,497.64 768.27,519.00 C762.71,536.49 758.87,546.65 752.85,559.81 C710.64,652.13 636.72,722.80 543.46,760.02 C514.12,771.73 482.75,779.68 446.50,784.60 ZM 506.23 629.75 C508.23,626.31 516.66,609.87 524.96,593.21 C533.26,576.54 540.37,563.12 540.77,563.37 C541.17,563.62 549.58,580.07 559.46,599.91 L 577.42 636.00 L 607.82 636.00 C634.21,636.00 638.14,635.81 637.65,634.52 C637.01,632.86 628.38,618.53 609.12,587.11 C601.90,575.35 596.00,565.60 596.00,565.46 C596.00,565.32 592.93,560.32 589.19,554.35 C577.12,535.14 573.00,528.07 573.00,526.55 C573.00,525.74 581.86,509.65 592.68,490.79 C623.93,436.34 632.02,422.12 632.59,420.63 C633.31,418.74 608.24,417.50 589.16,418.49 L 575.31 419.21 L 557.98 454.60 C548.44,474.07 540.35,490.00 539.98,490.00 C539.62,490.00 536.03,483.14 532.00,474.75 C514.41,438.11 505.85,421.00 504.41,419.55 C503.13,418.28 499.97,418.00 486.68,418.00 C467.72,418.01 448.00,419.02 448.00,419.98 C448.00,420.74 464.85,450.30 480.53,477.04 C495.37,502.36 508.00,525.21 508.00,526.74 C508.00,528.05 504.22,534.72 481.52,573.50 C475.08,584.50 468.95,595.08 467.90,597.00 C466.84,598.92 465.55,601.17 465.03,602.00 C462.85,605.44 456.00,617.23 456.00,617.54 C456.00,617.73 453.75,621.62 451.00,626.19 C448.25,630.76 446.00,634.84 446.00,635.25 C446.00,635.66 458.73,636.00 474.29,636.00 L 502.58 636.00 ZM 448.00 679.00 L 402.61 679.00 C362.14,679.00 357.15,678.83 356.61,677.42 C355.81,675.33 355.82,632.14 356.62,628.12 L 357.25 625.00 L 389.88 624.99 C407.82,624.99 424.87,624.70 427.77,624.35 L 433.04 623.72 L 432.50 586.50 L 395.05 586.24 C366.62,586.04 357.41,585.68 356.82,584.74 C355.90,583.29 355.71,543.92 356.61,541.58 C357.12,540.25 359.30,540.00 370.36,540.00 C377.59,540.00 398.02,539.70 415.77,539.34 L 448.04 538.68 L 447.50 500.50 L 306.50 500.50 L 306.25 609.25 L 305.99 718.00 L 448.00 718.00 ZM 271.00 458.00 L 291.25 457.99 C302.39,457.99 315.21,457.70 319.75,457.35 L 328.00 456.70 L 328.00 419.32 L 305.34 418.66 C276.48,417.82 171.27,417.80 167.10,418.63 L 163.96 419.26 L 164.23 438.38 L 164.50 457.50 L 192.25 457.77 L 220.00 458.03 L 220.00 636.00 L 271.00 636.00 ZM 783.00 349.12 C779.20,322.42 772.24,294.84 762.77,268.67 C772.77,295.62 779.37,321.81 783.00,349.12 ZM 20.44 344.90 C18.94,354.73 17.40,370.61 16.61,382.55 C18.62,343.93 26.28,306.24 39.25,270.51 C30.68,294.27 24.39,319.12 20.44,344.90 ZM 519.32 34.69 C546.49,43.30 572.53,54.80 596.21,68.87 C602.56,72.65 608.82,76.63 614.98,80.81 C601.02,71.38 586.54,62.96 571.71,55.68 C554.87,47.44 537.31,40.42 519.32,34.69 Z"
       fill="rgb(252,214,2)"
       id="path3" />
  </g>
</svg>
